<?xml version="1.0" encoding="UTF-8"?>
<svg width="1030px" height="1030px" viewBox="0 0 1030 1030" version="1.1" xmlns="http://www.w3.org/2000/svg" xmlns:xlink="http://www.w3.org/1999/xlink">
    <!-- Generator: Sketch 48.2 (47327) - http://www.bohemiancoding.com/sketch -->
    <title>Artboard</title>
    <desc>Created with Sketch.</desc>
    <defs></defs>
    <g id="Page-1" stroke="none" stroke-width="1" fill="none" fill-rule="evenodd">
        <g id="Artboard">
            <g id="Page-1" transform="translate(7.000000, 7.000000)">
                <path d="M508,-0.000100197239 C788.561286,-0.000100197239 1016,227.439616 1016,507.9999 C1016,788.560184 788.561286,1015.9999 508,1015.9999 C227.439716,1015.9999 0,788.560184 0,507.9999 C0,227.439616 227.439716,-0.000100197239 508,-0.000100197239 Z" id="Stroke-4" stroke="#000000" stroke-width="10"></path>
                <path d="M811.597633,310.219468 C811.597633,360.579602 711.234067,385.759168 510.504931,385.759168 C309.775795,385.759168 209.412229,360.579602 209.412229,310.219468 L209.412229,209.412028 L410.792647,209.412028 L410.792647,313.115168 C410.792647,334.171618 444.029073,344.699342 510.504931,344.699342 C577.632071,344.699342 611.19514,334.171618 611.19514,313.115168 L611.19514,209.412028 L811.597633,209.412028 L811.597633,310.219468 Z" id="Fill-6" fill="#000000"></path>
                <polygon id="Fill-8" fill="#000000" points="614.895023 567.116772 406.115039 567.116772 209.411828 422.832748 393.173564 422.832748 484.622581 505.685845 513.956325 533.887359 541.562668 506.123707 633.875386 422.832748 811.597232 422.832748"></polygon>
                <path d="M509.314087,817.609868 C362.991049,817.609868 261.354978,804.723501 204.401866,778.948764 L309.54484,745.925758 C327.068335,757.470484 352.257921,765.592472 385.1146,770.289718 C417.97228,774.988969 458.495049,777.338594 506.685913,777.338594 C545.238805,777.338594 575.028446,775.726421 596.055838,772.505079 C617.085235,769.283738 627.598931,764.854018 627.598931,759.21592 C627.598931,754.651935 617.742529,750.758271 598.02772,747.536929 C578.312911,744.315588 544.362079,741.228511 496.171215,738.274697 C395.409866,732.099541 324.658592,723.978555 283.915389,713.910736 C243.173187,703.841916 222.802087,690.217095 222.802087,673.034271 C222.802087,661.758073 234.192509,651.153198 256.973353,641.219643 C279.754197,631.286089 313.487602,623.298365 358.172564,617.258476 C402.857527,611.217584 456.304738,608.197639 518.514197,608.197639 C592.114079,608.197639 651.694363,611.620377 697.255049,618.466854 C742.81774,625.31233 780.930765,636.118602 811.597132,650.885671 L699.884225,679.880748 C680.60828,669.141608 656.73228,661.222018 628.256225,656.119975 C599.78017,651.018933 564.075886,648.468914 521.143373,648.468914 C485.218655,648.468914 456.52417,650.347612 435.057913,654.107012 C413.590655,657.865411 402.857527,662.429395 402.857527,667.798965 C402.857527,673.437064 413.372225,678.135312 434.400619,681.894712 C455.429014,685.653111 492.666316,689.142981 546.114529,692.365324 C641.618529,698.270949 709.302765,705.990144 749.170245,715.520906 C789.03572,725.051667 808.968959,738.273695 808.968959,755.187991 C808.968959,773.981987 782.902647,789.083714 730.770024,800.494176 C678.636398,811.904637 604.818087,817.609868 509.314087,817.609868" id="Fill-10" fill="#000000"></path>
            </g>
        </g>
    </g>
</svg>