<?xml version="1.0" encoding="UTF-8"?>
<svg preserveAspectRatio="none" width="1024px" height="3909px" viewBox="0 0 1024 3909" version="1.1" xmlns="http://www.w3.org/2000/svg" xmlns:xlink="http://www.w3.org/1999/xlink">
    <!-- Generator: Sketch 48.2 (47327) - http://www.bohemiancoding.com/sketch -->
    <title>Desktop Copy 50</title>
    <desc>Created with Sketch.</desc>
    <defs></defs>
    <g id="Page-1" stroke="none" stroke-width="1" fill="none" fill-rule="evenodd">
        <g id="Desktop-Copy-50" fill="#101010">
            <path d="M975,200.168657 C975,247.608695 936.32807,283.273512 858.983051,307.164179 C781.638031,331.054846 666.144836,343 512.5,343 C359.900367,343 244.668468,331.054846 166.800847,307.164179 C88.9332265,283.273512 50,247.608695 50,200.168657 L50,0 L321.228814,0 L321.228814,201.704478 C321.228814,225.93644 336.906623,244.024816 368.262712,255.970149 C399.618801,267.915483 447.697416,273.88806 512.5,273.88806 C642.105168,273.88806 706.90678,249.827106 706.90678,201.704478 L706.90678,0 L975,0 L975,200.168657 Z M652.421759,751 L373.956781,751 L50,414 L299.515648,414 L466.318927,617.731818 L515.946349,684.110606 L564.195231,618.75303 L733.755589,414 L975,414 L652.421759,751 Z M526.889267,821 C625.106681,821 708.955927,825.776423 778.439523,835.329412 C847.923119,844.882401 912.442632,860.405775 972,881.9 L819.972743,939.217647 C785.492161,922.158738 745.004207,909.620628 698.507666,901.602941 C652.011125,893.585254 596.37284,889.576471 531.591141,889.576471 C477.258104,889.576471 435.464087,892.647028 406.207836,898.788235 C376.951586,904.929442 362.32368,913.117596 362.32368,923.352941 C362.32368,931.882396 377.735224,938.79115 408.558773,944.079412 C439.382323,949.367673 491.886057,954.22939 566.07155,958.664706 C709.218206,967.19416 811.352335,979.646977 872.477002,996.023529 C933.601668,1012.40008 964.163543,1035.42926 964.163543,1065.11176 C964.163543,1086.60599 945.356236,1105.19992 907.741056,1120.89412 C870.125877,1136.58831 818.144568,1148.52937 751.795571,1156.71765 C685.446573,1164.90592 610.478555,1169 526.889267,1169 C409.864264,1169 314.782876,1164.30887 241.642249,1154.92647 C168.501622,1145.54407 105.288171,1131.12951 52,1111.68235 L189.921635,1050.27059 C230.671413,1068.69421 276.644832,1081.65879 327.843271,1089.16471 C379.04171,1096.67063 440.687885,1100.42353 512.783646,1100.42353 C570.251281,1100.42353 613.351361,1097.77944 642.085179,1092.49118 C670.818997,1087.20291 685.18569,1079.61181 685.18569,1069.71765 C685.18569,1061.87055 669.774146,1055.47355 638.950596,1050.52647 C608.127046,1045.57939 556.668163,1040.88826 484.572402,1036.45294 C395.758784,1030.65291 322.358041,1023.74416 264.367973,1015.72647 C206.377904,1007.70878 161.449336,996.876539 129.58092,983.229412 C97.7125039,969.582285 81.7785349,952.182459 81.7785349,931.029412 C81.7785349,909.876365 99.2797796,890.94126 134.282794,874.223529 C169.285808,857.505799 220.483479,844.455929 287.877342,835.073529 C355.271206,825.69113 434.941051,821 526.889267,821 Z" id="U-V-S"></path>
        </g>
    </g>
</svg>